<svg width="25" height="24" fill="none" xmlns="http://www.w3.org/2000/svg"><path d="M18.308 21a4.21 4.21 0 01-2.363-.727 4.3 4.3 0 01-1.566-1.935 4.37 4.37 0 01-.242-2.492 4.331 4.331 0 011.163-2.208 4.234 4.234 0 012.178-1.18 4.198 4.198 0 012.457.245 4.27 4.27 0 011.908 1.589 4.357 4.357 0 01-.53 5.443A4.227 4.227 0 0118.308 21zm0-7.125c-.549 0-1.085.165-1.541.474a2.804 2.804 0 00-1.022 1.262 2.85 2.85 0 00-.158 1.625c.107.546.372 1.047.76 1.44a2.737 2.737 0 003.022.61c.507-.213.94-.573 1.244-1.036a2.84 2.84 0 00-.345-3.55 2.757 2.757 0 00-1.96-.825zM6.104 21a4.21 4.21 0 01-2.362-.727 4.3 4.3 0 01-1.566-1.935 4.369 4.369 0 01-.242-2.492 4.331 4.331 0 011.163-2.208 4.235 4.235 0 012.178-1.18 4.198 4.198 0 012.457.245 4.27 4.27 0 011.908 1.589 4.356 4.356 0 01-.53 5.443A4.227 4.227 0 016.104 21zm0-7.125c-.548 0-1.084.165-1.54.474a2.804 2.804 0 00-1.022 1.262 2.85 2.85 0 00-.158 1.625c.107.546.372 1.047.76 1.44a2.738 2.738 0 003.022.61c.507-.213.94-.573 1.245-1.036a2.84 2.84 0 00-.346-3.55 2.758 2.758 0 00-1.96-.825zM15.164 6a1.456 1.456 0 001.05-.44 1.495 1.495 0 00.43-1.065 1.495 1.495 0 00-.426-1.06 1.458 1.458 0 00-1.61-.323 1.478 1.478 0 00-.804.81 1.518 1.518 0 00.316 1.635A1.477 1.477 0 0015.164 6z" fill="#1D2E5B"/><path d="M17.362 9H15.34a.183.183 0 01-.163-.097L13.71 6.176a1.447 1.447 0 00-.435-.511 1.422 1.422 0 00-1.279-.204 1.43 1.43 0 00-.568.352l-3.23 3.3c-.27.28-.425.656-.43 1.05 0 .815.583 1.106.856 1.27 1.317.77 2.245 1.332 2.754 1.645a.187.187 0 01.088.16v3.24c0 .404.306.75.704.77a.732.732 0 00.546-.206.75.75 0 00.23-.542v-4.031a.757.757 0 00-.308-.61l-1.71-1.247a.187.187 0 01-.077-.134.19.19 0 01.05-.147l1.941-2.1A.185.185 0 0113 8.173a.183.183 0 01.139.095l1.008 1.846a.745.745 0 00.647.386h2.589a.73.73 0 00.536-.232A.751.751 0 0017.362 9z" fill="#1D2E5B"/></svg>