<svg width="20" height="20" viewBox="0 0 20 20" fill="none" xmlns="http://www.w3.org/2000/svg">
<path d="M5 1.25C7.7625 1.25 10 3.44375 10 6.15C10 3.44375 12.2375 1.25 15 1.25C17.7625 1.25 20 3.44375 20 6.15C20 10.2288 15.9575 11.6675 10.49 18.16C10.4298 18.2313 10.3548 18.2886 10.2701 18.3279C10.1855 18.3672 10.0933 18.3876 10 18.3876C9.90668 18.3876 9.81449 18.3672 9.72986 18.3279C9.64523 18.2886 9.57019 18.2313 9.51 18.16C4.0425 11.6675 0 10.2288 0 6.15C0 3.44375 2.2375 1.25 5 1.25Z" fill="#F02323"/>
</svg>
