<svg width="16" height="14" viewBox="0 0 16 14" fill="none" xmlns="http://www.w3.org/2000/svg">
<path d="M1.25925 2.60026L7.25925 6.36066C7.46085 6.48666 7.72165 6.54639 7.98405 6.54639C8.24645 6.54639 8.50725 6.48666 8.70885 6.36066L14.7088 2.60026C15.1 2.35479 15.4697 1.39999 14.7521 1.39999H1.21685C0.49925 1.39999 0.86885 2.35479 1.25925 2.60026ZM14.8905 4.65639L8.70885 8.41493C8.43685 8.58106 8.24645 8.60066 7.98405 8.60066C7.72165 8.60066 7.53125 8.58106 7.25925 8.41493C6.98725 8.24879 1.55285 4.92519 1.10885 4.65546C0.79685 4.46506 0.80005 4.68813 0.80005 4.85986V11.6667C0.80005 12.0587 1.25285 12.6 1.60005 12.6H14.4001C14.7473 12.6 15.2001 12.0587 15.2001 11.6667V4.86079C15.2001 4.68906 15.2033 4.46599 14.8905 4.65639Z" fill="#161C35"/>
</svg>
