<svg width="18" height="18" fill="none" xmlns="http://www.w3.org/2000/svg"><path d="M8.974 7.424c0 .189.154.337.341.337a.7.7 0 01.704.696.34.34 0 00.341.337.34.34 0 00.341-.337 1.38 1.38 0 00-1.386-1.37.34.34 0 00-.34.337zm5.558 1.37a.338.338 0 00.341-.337c0-3.031-2.492-5.495-5.557-5.495a.34.34 0 00-.342.338.34.34 0 00.341.337c2.69 0 4.875 2.164 4.875 4.82a.34.34 0 00.342.337z" fill="#161C35"/><path d="M12.105 8.457a.34.34 0 00.341.337.34.34 0 00.341-.337c0-1.894-1.556-3.433-3.471-3.433a.34.34 0 00-.342.338c0 .189.154.337.342.337 1.54 0 2.789 1.239 2.789 2.758zM9.315.9a.34.34 0 00-.34.338.34.34 0 00.34.337c3.841 0 6.965 3.088 6.965 6.882 0 .185.15.337.341.337a.34.34 0 00.341-.337C16.962 4.289 13.532.9 9.316.9zm3.336 11.114l-.447.24c-.755.408-1.342 1.527-2.273.684L7.501 10.5 5.4 8.457c-1.055-1.334.126-1.65.54-2.4l.242-.439c.273-.5.372-1.06.29-1.62a2.557 2.557 0 00-.744-1.475 2.636 2.636 0 00-1.868-.762c-.706 0-1.372.27-1.87.762l-.174.176c-.922.911-1.028 2.48-.3 4.425C2.2 8.98 3.583 10.99 5.4 12.787c2.769 2.737 5.851 4.313 8.063 4.313.874 0 1.615-.246 2.14-.766l.178-.176a2.595 2.595 0 00.775-1.85 2.636 2.636 0 00-.775-1.845 2.683 2.683 0 00-3.13-.45z" fill="#161C35"/></svg>