<svg width="18" height="18" fill="none" xmlns="http://www.w3.org/2000/svg"><g clip-path="url(#clip0)" fill="#192144"><path d="M12.96 2.033a3.274 3.274 0 012.289.936c.607.597.95 1.407.951 2.252v7.791a3.169 3.169 0 01-.951 2.252 3.275 3.275 0 01-2.289.936H5.04a3.274 3.274 0 01-2.284-.938 3.169 3.169 0 01-.949-2.25V5.221a3.169 3.169 0 01.949-2.25 3.274 3.274 0 012.284-.938h7.92zm0-1.062H5.04a4.356 4.356 0 00-3.055 1.244A4.215 4.215 0 00.72 5.221v7.791c0 1.127.455 2.208 1.265 3.005a4.356 4.356 0 003.055 1.245h7.92a4.357 4.357 0 003.055-1.245 4.216 4.216 0 001.265-3.005V5.221a4.216 4.216 0 00-1.265-3.006A4.356 4.356 0 0012.96.971z"/><path d="M9.007 5.985c.63 0 1.248.184 1.772.529a3.15 3.15 0 011.175 1.408 3.09 3.09 0 01.181 1.813 3.122 3.122 0 01-.873 1.607 3.206 3.206 0 01-1.633.858 3.238 3.238 0 01-1.843-.178 3.18 3.18 0 01-1.431-1.156 3.102 3.102 0 01.395-3.964 3.187 3.187 0 011.035-.68 3.228 3.228 0 011.222-.237zm0-1.063a4.32 4.32 0 00-2.374.705A4.216 4.216 0 005.057 7.51a4.137 4.137 0 00-.246 2.428 4.18 4.18 0 001.167 2.152 4.292 4.292 0 002.186 1.152c.829.162 1.687.08 2.468-.238a4.256 4.256 0 001.917-1.547 4.153 4.153 0 00-.525-5.304c-.396-.39-.866-.7-1.384-.91a4.323 4.323 0 00-1.633-.32zm4.421.808a.957.957 0 00.965-.948.957.957 0 00-.965-.95.957.957 0 00-.965.95c0 .524.432.949.965.949z"/></g><defs><clipPath id="clip0"><path fill="#fff" transform="translate(0 .262)" d="M0 0h18v17.708H0z"/></clipPath></defs></svg>