<svg width="23" height="13" fill="none" xmlns="http://www.w3.org/2000/svg"><path d="M17.766 11.854a3.017 3.017 0 01-1.543-.465 7.53 7.53 0 01-1.32-1.129c-.327-.324-.869-.87-1.076-.87-.208 0-.356.679-.349 1.158a1.29 1.29 0 01-.349.893 1.68 1.68 0 01-.905.369H10.8a8.424 8.424 0 01-5.513-2.214C2.557 7.11.212 2.358.116 2.152A.984.984 0 01.227 1.06C.51.825.868.7 1.237.705h3.115c.25.037.49.125.704.259.202.134.363.32.467.538.32.681.687 1.34 1.099 1.97.971 1.476 1.402 1.815 1.558 1.89a5.96 5.96 0 00.14-2.118 1.982 1.982 0 00-.155-.945.99.99 0 00-.572-.214l-.541-.509c-.104-.487.438-.907.816-1.07a6.481 6.481 0 012.337-.28h.527a6.795 6.795 0 011.595.147c1.261.266 1.217 1.277 1.165 2.443 0 .34-.037.737-.037 1.195v.354c-.03.321-.007.645.067.96a6.718 6.718 0 001.535-1.83c.43-.659.807-1.35 1.128-2.067a1.168 1.168 0 011.187-.7h3.176c.093-.01.188-.01.282 0 .742 0 1.18.214 1.357.627.178.413.127 1.225-1.75 3.401l-.742.834c-.36.347-.67.742-.92 1.173.28.318.6.6.95.841A10.542 10.542 0 0121.95 9.87a1.177 1.177 0 01.193 1.24 1.705 1.705 0 01-1.395.738l-2.812.037-.17-.03zm-3.94-3.571c.668 0 1.247.583 1.863 1.195.333.362.706.683 1.113.96.308.203.67.31 1.039.31h.074l2.82-.037c.138-.008.274-.043.4-.104l-.074-.118a9.778 9.778 0 00-1.989-2.007c-.883-.738-1.335-1.084-1.387-1.653-.052-.568.363-1.062 1.194-2l.742-.818a7.916 7.916 0 001.521-2.177 4.22 4.22 0 00-.497 0h-3.242a.41.41 0 00-.178 0A15.093 15.093 0 0116 4.084c-1.403 2.081-2.063 2.362-2.53 2.362a.887.887 0 01-.416-.103c-.742-.421-.742-1.358-.697-2.037V3.99c0-.48 0-.893.037-1.247.06-1.24 0-1.247-.282-1.313a6.386 6.386 0 00-1.38-.119h-.512a9.699 9.699 0 00-1.41.074.859.859 0 01.186.185 2.8 2.8 0 01.438 1.608c.096 1.218.044 2.804-.742 3.188-.14.064-.292.097-.446.096-.69 0-1.372-.65-2.537-2.406a17.253 17.253 0 01-1.195-2.103l-.059-.073a.901.901 0 00-.237-.082h-3.02c.438.9 2.515 4.885 4.837 6.973a7.44 7.44 0 004.764 1.94h1.372a.743.743 0 00.2-.073v-.067c0-.199 0-1.918 1.173-2.213.09-.036.185-.06.282-.074z" fill="#192144"/></svg>