<svg width="11" height="21" fill="none" xmlns="http://www.w3.org/2000/svg"><path d="M7.488 20.77H2.129v-9.52H0V6.544h2.066c-.157-2.132.236-3.69 1.195-4.752A4.882 4.882 0 014.896.686 5.15 5.15 0 016.867.294h3.756v4.538H7.669a4.554 4.554 0 00-.197 1.712h3.143v4.707H7.472l.016 9.519zm-4.172-1.107h2.97v-9.518h3.143V7.673H6.286v-.56c0-1.477 0-2.797.785-3.292l.15-.096h2.208V1.401h-2.53a3.876 3.876 0 00-1.497.28c-.472.19-.897.472-1.246.827-.785.907-1.107 2.427-.864 4.53l.079.613H1.179v2.494h2.137v9.518z" fill="#192144"/></svg>