<svg xmlns="http://www.w3.org/2000/svg" xmlns:xlink="http://www.w3.org/1999/xlink"><defs>
        <clipPath id="clip0">
            <path transform="translate(.08 .92)" d="M0 0h17.04v19.2H0z"/>
        </clipPath>
    
        <clipPath id="clip0">
            <path transform="translate(0 .96)" d="M0 0h20.826v21.12H0z"/>
        </clipPath>
    </defs><symbol id="icon-bicycle" viewBox="0 0 25 24" fill="currentColor">
    <path d="M18.308 21a4.21 4.21 0 01-2.363-.727 4.3 4.3 0 01-1.566-1.935 4.37 4.37 0 01-.242-2.492 4.331 4.331 0 011.163-2.208 4.234 4.234 0 012.178-1.18 4.198 4.198 0 012.457.245c.777.327 1.441.88 1.908 1.589a4.357 4.357 0 01-.53 5.443A4.227 4.227 0 0118.308 21zm0-7.125c-.549 0-1.085.165-1.541.474a2.804 2.804 0 00-1.022 1.262 2.85 2.85 0 00-.158 1.625c.107.546.372 1.047.76 1.44a2.737 2.737 0 003.022.61c.507-.213.94-.573 1.244-1.036a2.84 2.84 0 00-.345-3.55 2.757 2.757 0 00-1.96-.825zM6.104 21a4.21 4.21 0 01-2.362-.727 4.3 4.3 0 01-1.566-1.935 4.369 4.369 0 01-.242-2.492 4.331 4.331 0 011.163-2.208 4.235 4.235 0 012.178-1.18 4.198 4.198 0 012.457.245c.777.327 1.441.88 1.908 1.589a4.356 4.356 0 01-.53 5.443A4.227 4.227 0 016.104 21zm0-7.125c-.548 0-1.084.165-1.54.474a2.804 2.804 0 00-1.022 1.262 2.85 2.85 0 00-.158 1.625c.107.546.372 1.047.76 1.44a2.738 2.738 0 003.022.61c.507-.213.94-.573 1.245-1.036a2.84 2.84 0 00-.346-3.55 2.758 2.758 0 00-1.96-.825zM15.164 6a1.456 1.456 0 001.05-.44 1.495 1.495 0 00.43-1.065 1.495 1.495 0 00-.426-1.06 1.458 1.458 0 00-1.61-.323 1.478 1.478 0 00-.804.81 1.518 1.518 0 00.316 1.635A1.477 1.477 0 0015.164 6z"/>
    <path d="M17.362 9H15.34a.183.183 0 01-.163-.097L13.71 6.176a1.447 1.447 0 00-.435-.511 1.422 1.422 0 00-1.279-.204 1.43 1.43 0 00-.568.352l-3.23 3.3c-.27.28-.425.656-.43 1.05 0 .815.583 1.106.856 1.27 1.317.77 2.245 1.332 2.754 1.645a.187.187 0 01.088.16v3.24c0 .404.306.75.704.77a.732.732 0 00.546-.206.75.75 0 00.23-.542v-4.031a.757.757 0 00-.308-.61l-1.71-1.247a.187.187 0 01-.077-.134.19.19 0 01.05-.147l1.941-2.1A.185.185 0 0113 8.173a.183.183 0 01.139.095l1.008 1.846a.745.745 0 00.647.386h2.589a.73.73 0 00.536-.232A.751.751 0 0017.362 9z"/>
</symbol><symbol id="icon-bus" viewBox="0 0 18 21" fill="currentColor">
    <g clip-path="url(#clip0)">
        <path d="M4.34 13.948a1.3 1.3 0 00-.415-.97 1.392 1.392 0 00-1.004-.4c-.392 0-.726.133-1.003.4a1.3 1.3 0 00-.416.97c0 .38.138.702.416.97.277.268.611.402 1.003.402.392 0 .726-.134 1.004-.402.277-.268.415-.59.415-.97zm11.356 0a1.3 1.3 0 00-.416-.97 1.392 1.392 0 00-1.004-.4c-.392 0-.726.133-1.003.4a1.3 1.3 0 00-.416.97c0 .38.138.702.416.97.277.268.611.402 1.003.402.392 0 .726-.134 1.004-.402a1.3 1.3 0 00.416-.97zm-.51-4.242l-.799-4.115a.695.695 0 00-.25-.401.698.698 0 00-.449-.156H3.508c-.17 0-.319.052-.448.156a.695.695 0 00-.25.401l-.798 4.115a.661.661 0 00.155.568c.14.164.322.246.543.246h11.777a.682.682 0 00.543-.246.661.661 0 00.155-.568zm-2.507-6.558a.488.488 0 00-.155-.364.523.523 0 00-.377-.15H5.05a.523.523 0 00-.377.15.488.488 0 00-.155.364.523.523 0 00.532.514h7.097c.148 0 .274-.05.377-.15a.488.488 0 00.155-.364zm4.436 7.768v6.461h-1.42v1.372a1.3 1.3 0 01-.415.97 1.392 1.392 0 01-1.004.4c-.392 0-.726-.133-1.003-.4a1.299 1.299 0 01-.416-.97v-1.372H4.34v1.372c0 .378-.138.701-.415.97a1.392 1.392 0 01-1.004.4c-.392 0-.726-.133-1.003-.4a1.299 1.299 0 01-.416-.97v-1.372H.082v-6.46c0-.8.093-1.597.278-2.39l1.142-4.864c.066-.557.427-1.047 1.08-1.468.655-.422 1.505-.74 2.551-.954C6.18 1.027 7.334.92 8.6.92c1.264 0 2.419.107 3.465.321 1.046.215 1.896.532 2.55.954.655.421 1.015.91 1.082 1.468l1.164 4.864c.17.729.255 1.525.255 2.39z"/>
    </g>
    
</symbol><symbol id="icon-mail" viewBox="0 0 24 25" fill="currentColor">
    <path fill-rule="evenodd" clip-rule="evenodd" d="M19.14 16.466L14.808 12.5l4.33-3.966-.59-.631-6.299 5.769-6.299-5.77-.59.632L9.69 12.5l-4.33 3.966.59.631 4.38-4.011 1.919 1.758 1.92-1.758 4.379 4.011.59-.63zM4.575 6.25c-.81 0-1.465.699-1.465 1.558v9.384c0 .86.65 1.558 1.465 1.558h15.348c.809 0 1.465-.699 1.465-1.558V7.808c0-.86-.65-1.558-1.465-1.558H4.576z"/>
</symbol><symbol id="icon-plane" viewBox="0 0 21 23" fill="currentColor">
    <g clip-path="url(#clip0)">
        <path d="M16.783 2.093c-.728.173-1.46.347-1.733.824l-2.107 4.199L1.63 9.806l-.458 1.341 8.658.82-1.47 3.634-3.283.78-.824 1.43 2.369.256.27 1.169c.12.414.545.69.908.604l1.095-.26 1.268 2.163.825-1.428-.81-3.505 2.377-3.03 4.536 7.961.914-1.038L15.213 8.63l2.563-3.895c.276-.477.096-1.255-.085-2.036-.09-.387-.545-.691-.908-.605z"/>
    </g>
    
</symbol><symbol id="icon-run" viewBox="0 0 21 24" fill="currentColor">
    <path d="M14.976 5.76c.95 0 1.721-.86 1.721-1.92s-.77-1.92-1.721-1.92c-.95 0-1.721.86-1.721 1.92s.77 1.92 1.72 1.92zM13.923 10.53c.198.329.481.581.812.724.33.142.693.168 1.037.073l2.854-.796-.416-1.862-2.854.796L14.17 7.48a1.735 1.735 0 00-1.094-.82l-3.31-.739a1.56 1.56 0 00-1.094.158c-.34.185-.614.49-.783.867l-1.427 3.183 1.54.86 1.427-3.185 1.692.378-4.377 8.138H2.927v1.92h3.816c.601 0 1.166-.357 1.476-.932l1.65-3.068 4.45.992 1.562 5.231 1.632-.607-1.562-5.23a1.955 1.955 0 00-.495-.833 1.665 1.665 0 00-.801-.444l-2.615-.583 1.525-2.836.358.6z"/>
</symbol><symbol id="icon-telephone" viewBox="0 0 19 17" fill="currentColor">
    <path fill-rule="evenodd" clip-rule="evenodd" d="M9.5 1.086c-2.796 0-5.6.473-6.617 1.415-.844.782-1.125 2.162-1.22 3.037 0 0-.013.086-.013.123 0 .343.294.618.654.618.043 0 1.616-.12 2.565-.195.022-.003.045-.006.068-.012.353-.01.638-.281.638-.618l.003-1.217c0-.377.324-.68.723-.68H12.7c.399 0 .723.303.723.68l.003 1.217c0 .337.284.609.638.618.022.006.045.01.069.012.948.074 2.521.195 2.564.195.36 0 .654-.275.654-.618 0-.037-.013-.123-.013-.123-.095-.875-.376-2.255-1.22-3.037-1.017-.942-3.82-1.415-6.617-1.415zm0 8.032c-.723 0-1.308.553-1.308 1.235 0 .683.585 1.236 1.308 1.236.723 0 1.308-.553 1.308-1.236 0-.682-.585-1.235-1.308-1.235zm-.981-2.78v-.773c0-.426-.367-.772-.818-.772-.451 0-.818.346-.818.772v.773l-4.412 4.45a1.504 1.504 0 00-.494 1.107v1.239c0 .682.586 1.235 1.308 1.235h.328v.772c0 .427.366.773.817.773.452 0 .818-.346.818-.773v-.772h8.504v.772c0 .427.366.773.818.773.451 0 .817-.346.817-.773v-.772h.327c.723 0 1.309-.553 1.309-1.236v-1.238c0-.433-.19-.825-.494-1.106l-4.412-4.451v-.773c0-.426-.367-.772-.818-.772-.451 0-.818.346-.818.772v.773H8.52zM9.5 7.882c1.446 0 2.617 1.106 2.617 2.471 0 1.366-1.171 2.472-2.617 2.472s-2.617-1.106-2.617-2.472c0-1.365 1.171-2.47 2.617-2.47z"/>
</symbol></svg>